<mxfile host="Electron" agent="Mozilla/5.0 (Macintosh; Intel Mac OS X 10_15_7) AppleWebKit/537.36 (KHTML, like Gecko) draw.io/26.0.9 Chrome/128.0.6613.186 Electron/32.2.5 Safari/537.36" version="26.0.9">
  <diagram id="C5RBs43oDa-KdzZeNtuy" name="Page-1">
    <mxGraphModel dx="3287" dy="1793" grid="1" gridSize="10" guides="1" tooltips="1" connect="1" arrows="1" fold="1" page="1" pageScale="1" pageWidth="827" pageHeight="1169" math="0" shadow="0">
      <root>
        <mxCell id="WIyWlLk6GJQsqaUBKTNV-0" />
        <mxCell id="WIyWlLk6GJQsqaUBKTNV-1" parent="WIyWlLk6GJQsqaUBKTNV-0" />
        <mxCell id="zkfFHV4jXpPFQw0GAbJ--0" value="Ticket" style="swimlane;fontStyle=2;align=center;verticalAlign=top;childLayout=stackLayout;horizontal=1;startSize=26;horizontalStack=0;resizeParent=1;resizeLast=0;collapsible=1;marginBottom=0;rounded=0;shadow=0;strokeWidth=1;" parent="WIyWlLk6GJQsqaUBKTNV-1" vertex="1">
          <mxGeometry x="220" y="150" width="180" height="400" as="geometry">
            <mxRectangle x="230" y="140" width="160" height="26" as="alternateBounds" />
          </mxGeometry>
        </mxCell>
        <mxCell id="hqBXddnmdZQXCiaFwKHF-0" value="id: Integer" style="text;html=1;align=center;verticalAlign=middle;resizable=0;points=[];autosize=1;strokeColor=none;fillColor=none;" vertex="1" parent="zkfFHV4jXpPFQw0GAbJ--0">
          <mxGeometry y="26" width="180" height="30" as="geometry" />
        </mxCell>
        <mxCell id="hqBXddnmdZQXCiaFwKHF-1" value="name: String" style="text;html=1;align=center;verticalAlign=middle;resizable=0;points=[];autosize=1;strokeColor=none;fillColor=none;" vertex="1" parent="zkfFHV4jXpPFQw0GAbJ--0">
          <mxGeometry y="56" width="180" height="30" as="geometry" />
        </mxCell>
        <mxCell id="hqBXddnmdZQXCiaFwKHF-2" value="coordinates: Coordinates&lt;div&gt;&lt;br&gt;&lt;/div&gt;" style="text;html=1;align=center;verticalAlign=middle;resizable=0;points=[];autosize=1;strokeColor=none;fillColor=none;" vertex="1" parent="zkfFHV4jXpPFQw0GAbJ--0">
          <mxGeometry y="86" width="180" height="40" as="geometry" />
        </mxCell>
        <mxCell id="hqBXddnmdZQXCiaFwKHF-3" value="creationDate: CreationDate" style="text;html=1;align=center;verticalAlign=middle;resizable=0;points=[];autosize=1;strokeColor=none;fillColor=none;" vertex="1" parent="zkfFHV4jXpPFQw0GAbJ--0">
          <mxGeometry y="126" width="180" height="30" as="geometry" />
        </mxCell>
        <mxCell id="hqBXddnmdZQXCiaFwKHF-4" value="person: Person" style="text;html=1;align=center;verticalAlign=middle;resizable=0;points=[];autosize=1;strokeColor=none;fillColor=none;" vertex="1" parent="zkfFHV4jXpPFQw0GAbJ--0">
          <mxGeometry y="156" width="180" height="30" as="geometry" />
        </mxCell>
        <mxCell id="hqBXddnmdZQXCiaFwKHF-5" value="event: Event" style="text;html=1;align=center;verticalAlign=middle;resizable=0;points=[];autosize=1;strokeColor=none;fillColor=none;" vertex="1" parent="zkfFHV4jXpPFQw0GAbJ--0">
          <mxGeometry y="186" width="180" height="30" as="geometry" />
        </mxCell>
        <mxCell id="hqBXddnmdZQXCiaFwKHF-6" value="price: float" style="text;html=1;align=center;verticalAlign=middle;resizable=0;points=[];autosize=1;strokeColor=none;fillColor=none;" vertex="1" parent="zkfFHV4jXpPFQw0GAbJ--0">
          <mxGeometry y="216" width="180" height="30" as="geometry" />
        </mxCell>
        <mxCell id="hqBXddnmdZQXCiaFwKHF-10" value="discount: Float" style="text;html=1;align=center;verticalAlign=middle;resizable=0;points=[];autosize=1;strokeColor=none;fillColor=none;" vertex="1" parent="zkfFHV4jXpPFQw0GAbJ--0">
          <mxGeometry y="246" width="180" height="30" as="geometry" />
        </mxCell>
        <mxCell id="hqBXddnmdZQXCiaFwKHF-7" value="type: TicketType" style="text;html=1;align=center;verticalAlign=middle;resizable=0;points=[];autosize=1;strokeColor=none;fillColor=none;" vertex="1" parent="zkfFHV4jXpPFQw0GAbJ--0">
          <mxGeometry y="276" width="180" height="30" as="geometry" />
        </mxCell>
        <mxCell id="hqBXddnmdZQXCiaFwKHF-11" value="number: int" style="text;html=1;align=center;verticalAlign=middle;resizable=0;points=[];autosize=1;strokeColor=none;fillColor=none;" vertex="1" parent="zkfFHV4jXpPFQw0GAbJ--0">
          <mxGeometry y="306" width="180" height="30" as="geometry" />
        </mxCell>
        <mxCell id="hqBXddnmdZQXCiaFwKHF-13" value="venue: Venue" style="text;html=1;align=center;verticalAlign=middle;resizable=0;points=[];autosize=1;strokeColor=none;fillColor=none;" vertex="1" parent="zkfFHV4jXpPFQw0GAbJ--0">
          <mxGeometry y="336" width="180" height="30" as="geometry" />
        </mxCell>
        <mxCell id="hqBXddnmdZQXCiaFwKHF-12" value="comment: String" style="text;html=1;align=center;verticalAlign=middle;resizable=0;points=[];autosize=1;strokeColor=none;fillColor=none;" vertex="1" parent="zkfFHV4jXpPFQw0GAbJ--0">
          <mxGeometry y="366" width="180" height="30" as="geometry" />
        </mxCell>
        <mxCell id="hqBXddnmdZQXCiaFwKHF-17" style="edgeStyle=orthogonalEdgeStyle;rounded=0;orthogonalLoop=1;jettySize=auto;html=1;exitX=0.5;exitY=0;exitDx=0;exitDy=0;entryX=0.5;entryY=1;entryDx=0;entryDy=0;endSize=10;endArrow=diamondThin;endFill=0;jumpSize=7;startSize=8;" edge="1" parent="WIyWlLk6GJQsqaUBKTNV-1" source="zkfFHV4jXpPFQw0GAbJ--6" target="zkfFHV4jXpPFQw0GAbJ--0">
          <mxGeometry relative="1" as="geometry" />
        </mxCell>
        <mxCell id="zkfFHV4jXpPFQw0GAbJ--6" value="Person" style="swimlane;fontStyle=0;align=center;verticalAlign=top;childLayout=stackLayout;horizontal=1;startSize=26;horizontalStack=0;resizeParent=1;resizeLast=0;collapsible=1;marginBottom=0;rounded=0;shadow=0;strokeWidth=1;" parent="WIyWlLk6GJQsqaUBKTNV-1" vertex="1">
          <mxGeometry x="120" y="870" width="140" height="240" as="geometry">
            <mxRectangle x="130" y="380" width="160" height="26" as="alternateBounds" />
          </mxGeometry>
        </mxCell>
        <mxCell id="hqBXddnmdZQXCiaFwKHF-20" value="id: Long" style="text;html=1;align=center;verticalAlign=middle;resizable=0;points=[];autosize=1;strokeColor=none;fillColor=none;" vertex="1" parent="zkfFHV4jXpPFQw0GAbJ--6">
          <mxGeometry y="26" width="140" height="30" as="geometry" />
        </mxCell>
        <mxCell id="hqBXddnmdZQXCiaFwKHF-21" value="eyeColor: Color" style="text;html=1;align=center;verticalAlign=middle;resizable=0;points=[];autosize=1;strokeColor=none;fillColor=none;" vertex="1" parent="zkfFHV4jXpPFQw0GAbJ--6">
          <mxGeometry y="56" width="140" height="30" as="geometry" />
        </mxCell>
        <mxCell id="hqBXddnmdZQXCiaFwKHF-22" value="hairColor: Color" style="text;html=1;align=center;verticalAlign=middle;resizable=0;points=[];autosize=1;strokeColor=none;fillColor=none;" vertex="1" parent="zkfFHV4jXpPFQw0GAbJ--6">
          <mxGeometry y="86" width="140" height="30" as="geometry" />
        </mxCell>
        <mxCell id="hqBXddnmdZQXCiaFwKHF-23" value="location: Location" style="text;html=1;align=center;verticalAlign=middle;resizable=0;points=[];autosize=1;strokeColor=none;fillColor=none;" vertex="1" parent="zkfFHV4jXpPFQw0GAbJ--6">
          <mxGeometry y="116" width="140" height="30" as="geometry" />
        </mxCell>
        <mxCell id="hqBXddnmdZQXCiaFwKHF-24" value="wight: Double" style="text;html=1;align=center;verticalAlign=middle;resizable=0;points=[];autosize=1;strokeColor=none;fillColor=none;" vertex="1" parent="zkfFHV4jXpPFQw0GAbJ--6">
          <mxGeometry y="146" width="140" height="30" as="geometry" />
        </mxCell>
        <mxCell id="hqBXddnmdZQXCiaFwKHF-25" value="passportId: String" style="text;html=1;align=center;verticalAlign=middle;resizable=0;points=[];autosize=1;strokeColor=none;fillColor=none;" vertex="1" parent="zkfFHV4jXpPFQw0GAbJ--6">
          <mxGeometry y="176" width="140" height="30" as="geometry" />
        </mxCell>
        <mxCell id="hqBXddnmdZQXCiaFwKHF-26" value="nationality: Country" style="text;html=1;align=center;verticalAlign=middle;resizable=0;points=[];autosize=1;strokeColor=none;fillColor=none;" vertex="1" parent="zkfFHV4jXpPFQw0GAbJ--6">
          <mxGeometry y="206" width="140" height="30" as="geometry" />
        </mxCell>
        <mxCell id="zkfFHV4jXpPFQw0GAbJ--13" value="Coordinates" style="swimlane;fontStyle=0;align=center;verticalAlign=top;childLayout=stackLayout;horizontal=1;startSize=26;horizontalStack=0;resizeParent=1;resizeLast=0;collapsible=1;marginBottom=0;rounded=0;shadow=0;strokeWidth=1;" parent="WIyWlLk6GJQsqaUBKTNV-1" vertex="1">
          <mxGeometry x="340" y="870" width="160" height="116" as="geometry">
            <mxRectangle x="340" y="380" width="170" height="26" as="alternateBounds" />
          </mxGeometry>
        </mxCell>
        <mxCell id="hqBXddnmdZQXCiaFwKHF-14" value="id: Long" style="text;html=1;align=center;verticalAlign=middle;resizable=0;points=[];autosize=1;strokeColor=none;fillColor=none;" vertex="1" parent="zkfFHV4jXpPFQw0GAbJ--13">
          <mxGeometry y="26" width="160" height="30" as="geometry" />
        </mxCell>
        <mxCell id="hqBXddnmdZQXCiaFwKHF-15" value="x: int" style="text;html=1;align=center;verticalAlign=middle;resizable=0;points=[];autosize=1;strokeColor=none;fillColor=none;" vertex="1" parent="zkfFHV4jXpPFQw0GAbJ--13">
          <mxGeometry y="56" width="160" height="30" as="geometry" />
        </mxCell>
        <mxCell id="hqBXddnmdZQXCiaFwKHF-16" value="y: Float" style="text;html=1;align=center;verticalAlign=middle;resizable=0;points=[];autosize=1;strokeColor=none;fillColor=none;" vertex="1" parent="zkfFHV4jXpPFQw0GAbJ--13">
          <mxGeometry y="86" width="160" height="30" as="geometry" />
        </mxCell>
        <mxCell id="zkfFHV4jXpPFQw0GAbJ--17" value="Address" style="swimlane;fontStyle=0;align=center;verticalAlign=top;childLayout=stackLayout;horizontal=1;startSize=26;horizontalStack=0;resizeParent=1;resizeLast=0;collapsible=1;marginBottom=0;rounded=0;shadow=0;strokeWidth=1;" parent="WIyWlLk6GJQsqaUBKTNV-1" vertex="1">
          <mxGeometry x="508" y="120" width="160" height="216" as="geometry">
            <mxRectangle x="550" y="140" width="160" height="26" as="alternateBounds" />
          </mxGeometry>
        </mxCell>
        <mxCell id="zkfFHV4jXpPFQw0GAbJ--18" value="Street" style="text;align=left;verticalAlign=top;spacingLeft=4;spacingRight=4;overflow=hidden;rotatable=0;points=[[0,0.5],[1,0.5]];portConstraint=eastwest;" parent="zkfFHV4jXpPFQw0GAbJ--17" vertex="1">
          <mxGeometry y="26" width="160" height="26" as="geometry" />
        </mxCell>
        <mxCell id="zkfFHV4jXpPFQw0GAbJ--19" value="City" style="text;align=left;verticalAlign=top;spacingLeft=4;spacingRight=4;overflow=hidden;rotatable=0;points=[[0,0.5],[1,0.5]];portConstraint=eastwest;rounded=0;shadow=0;html=0;" parent="zkfFHV4jXpPFQw0GAbJ--17" vertex="1">
          <mxGeometry y="52" width="160" height="26" as="geometry" />
        </mxCell>
        <mxCell id="zkfFHV4jXpPFQw0GAbJ--20" value="State" style="text;align=left;verticalAlign=top;spacingLeft=4;spacingRight=4;overflow=hidden;rotatable=0;points=[[0,0.5],[1,0.5]];portConstraint=eastwest;rounded=0;shadow=0;html=0;" parent="zkfFHV4jXpPFQw0GAbJ--17" vertex="1">
          <mxGeometry y="78" width="160" height="26" as="geometry" />
        </mxCell>
        <mxCell id="zkfFHV4jXpPFQw0GAbJ--21" value="Postal Code" style="text;align=left;verticalAlign=top;spacingLeft=4;spacingRight=4;overflow=hidden;rotatable=0;points=[[0,0.5],[1,0.5]];portConstraint=eastwest;rounded=0;shadow=0;html=0;" parent="zkfFHV4jXpPFQw0GAbJ--17" vertex="1">
          <mxGeometry y="104" width="160" height="26" as="geometry" />
        </mxCell>
        <mxCell id="zkfFHV4jXpPFQw0GAbJ--22" value="Country" style="text;align=left;verticalAlign=top;spacingLeft=4;spacingRight=4;overflow=hidden;rotatable=0;points=[[0,0.5],[1,0.5]];portConstraint=eastwest;rounded=0;shadow=0;html=0;" parent="zkfFHV4jXpPFQw0GAbJ--17" vertex="1">
          <mxGeometry y="130" width="160" height="26" as="geometry" />
        </mxCell>
        <mxCell id="zkfFHV4jXpPFQw0GAbJ--23" value="" style="line;html=1;strokeWidth=1;align=left;verticalAlign=middle;spacingTop=-1;spacingLeft=3;spacingRight=3;rotatable=0;labelPosition=right;points=[];portConstraint=eastwest;" parent="zkfFHV4jXpPFQw0GAbJ--17" vertex="1">
          <mxGeometry y="156" width="160" height="8" as="geometry" />
        </mxCell>
        <mxCell id="zkfFHV4jXpPFQw0GAbJ--24" value="Validate" style="text;align=left;verticalAlign=top;spacingLeft=4;spacingRight=4;overflow=hidden;rotatable=0;points=[[0,0.5],[1,0.5]];portConstraint=eastwest;" parent="zkfFHV4jXpPFQw0GAbJ--17" vertex="1">
          <mxGeometry y="164" width="160" height="26" as="geometry" />
        </mxCell>
        <mxCell id="zkfFHV4jXpPFQw0GAbJ--25" value="Output As Label" style="text;align=left;verticalAlign=top;spacingLeft=4;spacingRight=4;overflow=hidden;rotatable=0;points=[[0,0.5],[1,0.5]];portConstraint=eastwest;" parent="zkfFHV4jXpPFQw0GAbJ--17" vertex="1">
          <mxGeometry y="190" width="160" height="26" as="geometry" />
        </mxCell>
        <mxCell id="zkfFHV4jXpPFQw0GAbJ--26" value="" style="endArrow=open;shadow=0;strokeWidth=1;rounded=0;curved=0;endFill=1;edgeStyle=elbowEdgeStyle;elbow=vertical;" parent="WIyWlLk6GJQsqaUBKTNV-1" source="zkfFHV4jXpPFQw0GAbJ--0" target="zkfFHV4jXpPFQw0GAbJ--17" edge="1">
          <mxGeometry x="0.5" y="41" relative="1" as="geometry">
            <mxPoint x="380" y="192" as="sourcePoint" />
            <mxPoint x="540" y="192" as="targetPoint" />
            <mxPoint x="-40" y="32" as="offset" />
          </mxGeometry>
        </mxCell>
        <mxCell id="zkfFHV4jXpPFQw0GAbJ--27" value="0..1" style="resizable=0;align=left;verticalAlign=bottom;labelBackgroundColor=none;fontSize=12;" parent="zkfFHV4jXpPFQw0GAbJ--26" connectable="0" vertex="1">
          <mxGeometry x="-1" relative="1" as="geometry">
            <mxPoint y="4" as="offset" />
          </mxGeometry>
        </mxCell>
        <mxCell id="zkfFHV4jXpPFQw0GAbJ--28" value="1" style="resizable=0;align=right;verticalAlign=bottom;labelBackgroundColor=none;fontSize=12;" parent="zkfFHV4jXpPFQw0GAbJ--26" connectable="0" vertex="1">
          <mxGeometry x="1" relative="1" as="geometry">
            <mxPoint x="-7" y="4" as="offset" />
          </mxGeometry>
        </mxCell>
        <mxCell id="zkfFHV4jXpPFQw0GAbJ--29" value="lives at" style="text;html=1;resizable=0;points=[];;align=center;verticalAlign=middle;labelBackgroundColor=none;rounded=0;shadow=0;strokeWidth=1;fontSize=12;" parent="zkfFHV4jXpPFQw0GAbJ--26" vertex="1" connectable="0">
          <mxGeometry x="0.5" y="49" relative="1" as="geometry">
            <mxPoint x="-38" y="40" as="offset" />
          </mxGeometry>
        </mxCell>
        <mxCell id="hqBXddnmdZQXCiaFwKHF-18" style="edgeStyle=orthogonalEdgeStyle;rounded=0;orthogonalLoop=1;jettySize=auto;html=1;exitX=0.5;exitY=0;exitDx=0;exitDy=0;entryX=0.502;entryY=1.131;entryDx=0;entryDy=0;entryPerimeter=0;endArrow=diamondThin;endFill=0;endSize=10;" edge="1" parent="WIyWlLk6GJQsqaUBKTNV-1">
          <mxGeometry relative="1" as="geometry">
            <mxPoint x="420" y="870.07" as="sourcePoint" />
            <mxPoint x="310.3600000000001" y="549.9999999999999" as="targetPoint" />
            <Array as="points">
              <mxPoint x="420" y="710" />
              <mxPoint x="310" y="710" />
            </Array>
          </mxGeometry>
        </mxCell>
        <mxCell id="hqBXddnmdZQXCiaFwKHF-28" value="&lt;&lt;enum&gt;&gt; Color&#xa;" style="swimlane;fontStyle=0;align=center;verticalAlign=top;childLayout=stackLayout;horizontal=1;startSize=26;horizontalStack=0;resizeParent=1;resizeLast=0;collapsible=1;marginBottom=0;rounded=0;shadow=0;strokeWidth=1;" vertex="1" parent="WIyWlLk6GJQsqaUBKTNV-1">
          <mxGeometry x="-130" y="860" width="140" height="116" as="geometry">
            <mxRectangle x="130" y="380" width="160" height="26" as="alternateBounds" />
          </mxGeometry>
        </mxCell>
        <mxCell id="hqBXddnmdZQXCiaFwKHF-36" value="Green&lt;br&gt;Red&lt;br&gt;Orange&lt;br&gt;White&lt;br&gt;Brown" style="text;html=1;align=center;verticalAlign=middle;resizable=0;points=[];autosize=1;strokeColor=none;fillColor=none;" vertex="1" parent="hqBXddnmdZQXCiaFwKHF-28">
          <mxGeometry y="26" width="140" height="90" as="geometry" />
        </mxCell>
        <mxCell id="hqBXddnmdZQXCiaFwKHF-37" style="edgeStyle=orthogonalEdgeStyle;rounded=0;orthogonalLoop=1;jettySize=auto;html=1;exitX=0.977;exitY=0.303;exitDx=0;exitDy=0;entryX=-0.011;entryY=0.575;entryDx=0;entryDy=0;entryPerimeter=0;exitPerimeter=0;endArrow=diamondThin;endFill=0;endSize=10;" edge="1" parent="WIyWlLk6GJQsqaUBKTNV-1" source="hqBXddnmdZQXCiaFwKHF-36" target="hqBXddnmdZQXCiaFwKHF-21">
          <mxGeometry relative="1" as="geometry" />
        </mxCell>
        <mxCell id="hqBXddnmdZQXCiaFwKHF-39" value="&lt;&lt;enum&gt;&gt; Country&#xa;" style="swimlane;fontStyle=0;align=center;verticalAlign=top;childLayout=stackLayout;horizontal=1;startSize=26;horizontalStack=0;resizeParent=1;resizeLast=0;collapsible=1;marginBottom=0;rounded=0;shadow=0;strokeWidth=1;" vertex="1" parent="WIyWlLk6GJQsqaUBKTNV-1">
          <mxGeometry x="340" y="1016" width="140" height="116" as="geometry">
            <mxRectangle x="130" y="380" width="160" height="26" as="alternateBounds" />
          </mxGeometry>
        </mxCell>
        <mxCell id="hqBXddnmdZQXCiaFwKHF-40" value="Green&lt;br&gt;Red&lt;br&gt;Orange&lt;br&gt;White&lt;br&gt;Brown" style="text;html=1;align=center;verticalAlign=middle;resizable=0;points=[];autosize=1;strokeColor=none;fillColor=none;" vertex="1" parent="hqBXddnmdZQXCiaFwKHF-39">
          <mxGeometry y="26" width="140" height="90" as="geometry" />
        </mxCell>
        <mxCell id="hqBXddnmdZQXCiaFwKHF-41" style="edgeStyle=orthogonalEdgeStyle;rounded=0;orthogonalLoop=1;jettySize=auto;html=1;exitX=-0.011;exitY=0.569;exitDx=0;exitDy=0;entryX=1.007;entryY=0.547;entryDx=0;entryDy=0;entryPerimeter=0;exitPerimeter=0;endArrow=diamondThin;endFill=0;endSize=10;" edge="1" parent="WIyWlLk6GJQsqaUBKTNV-1" source="hqBXddnmdZQXCiaFwKHF-40" target="hqBXddnmdZQXCiaFwKHF-26">
          <mxGeometry relative="1" as="geometry" />
        </mxCell>
        <mxCell id="hqBXddnmdZQXCiaFwKHF-42" value="Location" style="swimlane;fontStyle=0;align=center;verticalAlign=top;childLayout=stackLayout;horizontal=1;startSize=26;horizontalStack=0;resizeParent=1;resizeLast=0;collapsible=1;marginBottom=0;rounded=0;shadow=0;strokeWidth=1;" vertex="1" parent="WIyWlLk6GJQsqaUBKTNV-1">
          <mxGeometry x="-130" y="1140" width="140" height="150" as="geometry">
            <mxRectangle x="130" y="380" width="160" height="26" as="alternateBounds" />
          </mxGeometry>
        </mxCell>
        <mxCell id="hqBXddnmdZQXCiaFwKHF-47" value="id: Long" style="text;html=1;align=center;verticalAlign=middle;resizable=0;points=[];autosize=1;strokeColor=none;fillColor=none;" vertex="1" parent="hqBXddnmdZQXCiaFwKHF-42">
          <mxGeometry y="26" width="140" height="30" as="geometry" />
        </mxCell>
        <mxCell id="hqBXddnmdZQXCiaFwKHF-48" value="x: Integer" style="text;html=1;align=center;verticalAlign=middle;resizable=0;points=[];autosize=1;strokeColor=none;fillColor=none;" vertex="1" parent="hqBXddnmdZQXCiaFwKHF-42">
          <mxGeometry y="56" width="140" height="30" as="geometry" />
        </mxCell>
        <mxCell id="hqBXddnmdZQXCiaFwKHF-49" value="y: float" style="text;html=1;align=center;verticalAlign=middle;resizable=0;points=[];autosize=1;strokeColor=none;fillColor=none;" vertex="1" parent="hqBXddnmdZQXCiaFwKHF-42">
          <mxGeometry y="86" width="140" height="30" as="geometry" />
        </mxCell>
        <mxCell id="hqBXddnmdZQXCiaFwKHF-50" value="z: FLoat" style="text;html=1;align=center;verticalAlign=middle;resizable=0;points=[];autosize=1;strokeColor=none;fillColor=none;" vertex="1" parent="hqBXddnmdZQXCiaFwKHF-42">
          <mxGeometry y="116" width="140" height="30" as="geometry" />
        </mxCell>
        <mxCell id="hqBXddnmdZQXCiaFwKHF-51" style="edgeStyle=orthogonalEdgeStyle;rounded=0;orthogonalLoop=1;jettySize=auto;html=1;exitX=0.5;exitY=0;exitDx=0;exitDy=0;entryX=-0.006;entryY=0.388;entryDx=0;entryDy=0;entryPerimeter=0;endArrow=diamondThin;endFill=0;endSize=10;" edge="1" parent="WIyWlLk6GJQsqaUBKTNV-1" source="hqBXddnmdZQXCiaFwKHF-42" target="hqBXddnmdZQXCiaFwKHF-23">
          <mxGeometry relative="1" as="geometry" />
        </mxCell>
        <mxCell id="hqBXddnmdZQXCiaFwKHF-52" value="Event" style="swimlane;fontStyle=0;align=center;verticalAlign=top;childLayout=stackLayout;horizontal=1;startSize=26;horizontalStack=0;resizeParent=1;resizeLast=0;collapsible=1;marginBottom=0;rounded=0;shadow=0;strokeWidth=1;" vertex="1" parent="WIyWlLk6GJQsqaUBKTNV-1">
          <mxGeometry x="687" y="380" width="140" height="150" as="geometry">
            <mxRectangle x="130" y="380" width="160" height="26" as="alternateBounds" />
          </mxGeometry>
        </mxCell>
        <mxCell id="hqBXddnmdZQXCiaFwKHF-53" value="id: Integer" style="text;html=1;align=center;verticalAlign=middle;resizable=0;points=[];autosize=1;strokeColor=none;fillColor=none;" vertex="1" parent="hqBXddnmdZQXCiaFwKHF-52">
          <mxGeometry y="26" width="140" height="30" as="geometry" />
        </mxCell>
        <mxCell id="hqBXddnmdZQXCiaFwKHF-54" value="name: String" style="text;html=1;align=center;verticalAlign=middle;resizable=0;points=[];autosize=1;strokeColor=none;fillColor=none;" vertex="1" parent="hqBXddnmdZQXCiaFwKHF-52">
          <mxGeometry y="56" width="140" height="30" as="geometry" />
        </mxCell>
        <mxCell id="hqBXddnmdZQXCiaFwKHF-55" value="ticketCount: Integer" style="text;html=1;align=center;verticalAlign=middle;resizable=0;points=[];autosize=1;strokeColor=none;fillColor=none;" vertex="1" parent="hqBXddnmdZQXCiaFwKHF-52">
          <mxGeometry y="86" width="140" height="30" as="geometry" />
        </mxCell>
        <mxCell id="hqBXddnmdZQXCiaFwKHF-56" value="eventType: EventType" style="text;html=1;align=center;verticalAlign=middle;resizable=0;points=[];autosize=1;strokeColor=none;fillColor=none;" vertex="1" parent="hqBXddnmdZQXCiaFwKHF-52">
          <mxGeometry y="116" width="140" height="30" as="geometry" />
        </mxCell>
        <mxCell id="hqBXddnmdZQXCiaFwKHF-61" style="edgeStyle=orthogonalEdgeStyle;rounded=0;orthogonalLoop=1;jettySize=auto;html=1;exitX=0.5;exitY=0;exitDx=0;exitDy=0;entryX=1.007;entryY=0.44;entryDx=0;entryDy=0;entryPerimeter=0;endArrow=diamondThin;endFill=0;endSize=10;" edge="1" parent="WIyWlLk6GJQsqaUBKTNV-1" source="hqBXddnmdZQXCiaFwKHF-52" target="hqBXddnmdZQXCiaFwKHF-5">
          <mxGeometry relative="1" as="geometry">
            <Array as="points">
              <mxPoint x="750" y="380" />
              <mxPoint x="750" y="349" />
            </Array>
          </mxGeometry>
        </mxCell>
        <mxCell id="hqBXddnmdZQXCiaFwKHF-62" value="&lt;&lt;enum&gt;&gt; EventTpe" style="swimlane;fontStyle=0;align=center;verticalAlign=top;childLayout=stackLayout;horizontal=1;startSize=26;horizontalStack=0;resizeParent=1;resizeLast=0;collapsible=1;marginBottom=0;rounded=0;shadow=0;strokeWidth=1;" vertex="1" parent="WIyWlLk6GJQsqaUBKTNV-1">
          <mxGeometry x="680" y="610" width="140" height="116" as="geometry">
            <mxRectangle x="130" y="380" width="160" height="26" as="alternateBounds" />
          </mxGeometry>
        </mxCell>
        <mxCell id="hqBXddnmdZQXCiaFwKHF-64" value="Concert&lt;div&gt;FootBall&lt;/div&gt;&lt;div&gt;Baseball&lt;/div&gt;&lt;div&gt;Opera&lt;/div&gt;" style="text;html=1;align=center;verticalAlign=middle;resizable=0;points=[];autosize=1;strokeColor=none;fillColor=none;" vertex="1" parent="hqBXddnmdZQXCiaFwKHF-62">
          <mxGeometry y="26" width="140" height="70" as="geometry" />
        </mxCell>
        <mxCell id="hqBXddnmdZQXCiaFwKHF-65" style="edgeStyle=orthogonalEdgeStyle;rounded=0;orthogonalLoop=1;jettySize=auto;html=1;exitX=0.5;exitY=0;exitDx=0;exitDy=0;entryX=-0.004;entryY=0.475;entryDx=0;entryDy=0;entryPerimeter=0;endArrow=diamondThin;endFill=0;endSize=10;" edge="1" parent="WIyWlLk6GJQsqaUBKTNV-1" source="hqBXddnmdZQXCiaFwKHF-62" target="hqBXddnmdZQXCiaFwKHF-56">
          <mxGeometry relative="1" as="geometry" />
        </mxCell>
        <mxCell id="hqBXddnmdZQXCiaFwKHF-66" value="&lt;&lt;enum&gt;&gt; TicketType" style="swimlane;fontStyle=0;align=center;verticalAlign=top;childLayout=stackLayout;horizontal=1;startSize=26;horizontalStack=0;resizeParent=1;resizeLast=0;collapsible=1;marginBottom=0;rounded=0;shadow=0;strokeWidth=1;" vertex="1" parent="WIyWlLk6GJQsqaUBKTNV-1">
          <mxGeometry x="-40" y="460" width="140" height="116" as="geometry">
            <mxRectangle x="130" y="380" width="160" height="26" as="alternateBounds" />
          </mxGeometry>
        </mxCell>
        <mxCell id="hqBXddnmdZQXCiaFwKHF-67" value="Vip&lt;div&gt;Usual&lt;/div&gt;&lt;div&gt;Budgetary&lt;/div&gt;&lt;div&gt;Cheap&lt;/div&gt;" style="text;html=1;align=center;verticalAlign=middle;resizable=0;points=[];autosize=1;strokeColor=none;fillColor=none;" vertex="1" parent="hqBXddnmdZQXCiaFwKHF-66">
          <mxGeometry y="26" width="140" height="70" as="geometry" />
        </mxCell>
        <mxCell id="hqBXddnmdZQXCiaFwKHF-68" style="edgeStyle=orthogonalEdgeStyle;rounded=0;orthogonalLoop=1;jettySize=auto;html=1;exitX=0.5;exitY=0;exitDx=0;exitDy=0;entryX=-0.017;entryY=0.493;entryDx=0;entryDy=0;entryPerimeter=0;endArrow=diamondThin;endFill=0;endSize=10;" edge="1" parent="WIyWlLk6GJQsqaUBKTNV-1" source="hqBXddnmdZQXCiaFwKHF-66" target="hqBXddnmdZQXCiaFwKHF-7">
          <mxGeometry relative="1" as="geometry">
            <Array as="points">
              <mxPoint x="30" y="440" />
              <mxPoint x="160" y="440" />
              <mxPoint x="217" y="441" />
            </Array>
          </mxGeometry>
        </mxCell>
        <mxCell id="hqBXddnmdZQXCiaFwKHF-69" value="Venue" style="swimlane;fontStyle=0;align=center;verticalAlign=top;childLayout=stackLayout;horizontal=1;startSize=26;horizontalStack=0;resizeParent=1;resizeLast=0;collapsible=1;marginBottom=0;rounded=0;shadow=0;strokeWidth=1;" vertex="1" parent="WIyWlLk6GJQsqaUBKTNV-1">
          <mxGeometry x="480" y="610" width="140" height="146" as="geometry">
            <mxRectangle x="130" y="380" width="160" height="26" as="alternateBounds" />
          </mxGeometry>
        </mxCell>
        <mxCell id="hqBXddnmdZQXCiaFwKHF-70" value="id: Long" style="text;html=1;align=center;verticalAlign=middle;resizable=0;points=[];autosize=1;strokeColor=none;fillColor=none;" vertex="1" parent="hqBXddnmdZQXCiaFwKHF-69">
          <mxGeometry y="26" width="140" height="30" as="geometry" />
        </mxCell>
        <mxCell id="hqBXddnmdZQXCiaFwKHF-71" value="name: String" style="text;html=1;align=center;verticalAlign=middle;resizable=0;points=[];autosize=1;strokeColor=none;fillColor=none;" vertex="1" parent="hqBXddnmdZQXCiaFwKHF-69">
          <mxGeometry y="56" width="140" height="30" as="geometry" />
        </mxCell>
        <mxCell id="hqBXddnmdZQXCiaFwKHF-72" value="capacity: int" style="text;html=1;align=center;verticalAlign=middle;resizable=0;points=[];autosize=1;strokeColor=none;fillColor=none;" vertex="1" parent="hqBXddnmdZQXCiaFwKHF-69">
          <mxGeometry y="86" width="140" height="30" as="geometry" />
        </mxCell>
        <mxCell id="hqBXddnmdZQXCiaFwKHF-73" value="type: VenueType" style="text;html=1;align=center;verticalAlign=middle;resizable=0;points=[];autosize=1;strokeColor=none;fillColor=none;" vertex="1" parent="hqBXddnmdZQXCiaFwKHF-69">
          <mxGeometry y="116" width="140" height="30" as="geometry" />
        </mxCell>
        <mxCell id="hqBXddnmdZQXCiaFwKHF-78" style="edgeStyle=orthogonalEdgeStyle;rounded=0;orthogonalLoop=1;jettySize=auto;html=1;exitX=0.5;exitY=0;exitDx=0;exitDy=0;entryX=0.995;entryY=0.493;entryDx=0;entryDy=0;entryPerimeter=0;endArrow=diamondThin;endFill=0;endSize=10;" edge="1" parent="WIyWlLk6GJQsqaUBKTNV-1" source="hqBXddnmdZQXCiaFwKHF-69" target="hqBXddnmdZQXCiaFwKHF-13">
          <mxGeometry relative="1" as="geometry" />
        </mxCell>
        <mxCell id="hqBXddnmdZQXCiaFwKHF-79" value="&lt;&lt;enum&gt;&gt; VenueType" style="swimlane;fontStyle=0;align=center;verticalAlign=top;childLayout=stackLayout;horizontal=1;startSize=26;horizontalStack=0;resizeParent=1;resizeLast=0;collapsible=1;marginBottom=0;rounded=0;shadow=0;strokeWidth=1;" vertex="1" parent="WIyWlLk6GJQsqaUBKTNV-1">
          <mxGeometry x="650" y="800" width="140" height="116" as="geometry">
            <mxRectangle x="130" y="380" width="160" height="26" as="alternateBounds" />
          </mxGeometry>
        </mxCell>
        <mxCell id="hqBXddnmdZQXCiaFwKHF-80" value="Loft&lt;div&gt;Open_Area&lt;/div&gt;&lt;div&gt;Stadium&lt;/div&gt;" style="text;html=1;align=center;verticalAlign=middle;resizable=0;points=[];autosize=1;strokeColor=none;fillColor=none;" vertex="1" parent="hqBXddnmdZQXCiaFwKHF-79">
          <mxGeometry y="26" width="140" height="60" as="geometry" />
        </mxCell>
        <mxCell id="hqBXddnmdZQXCiaFwKHF-81" style="edgeStyle=orthogonalEdgeStyle;rounded=0;orthogonalLoop=1;jettySize=auto;html=1;exitX=0.5;exitY=0;exitDx=0;exitDy=0;entryX=1.001;entryY=0.493;entryDx=0;entryDy=0;entryPerimeter=0;endArrow=diamondThin;endFill=0;endSize=10;" edge="1" parent="WIyWlLk6GJQsqaUBKTNV-1" source="hqBXddnmdZQXCiaFwKHF-79" target="hqBXddnmdZQXCiaFwKHF-73">
          <mxGeometry relative="1" as="geometry" />
        </mxCell>
        <mxCell id="hqBXddnmdZQXCiaFwKHF-82" value="&lt;&lt;intefrace&gt;&gt; JpaRepository" style="swimlane;fontStyle=0;align=center;verticalAlign=top;childLayout=stackLayout;horizontal=1;startSize=26;horizontalStack=0;resizeParent=1;resizeLast=0;collapsible=1;marginBottom=0;rounded=0;shadow=0;strokeWidth=1;" vertex="1" parent="WIyWlLk6GJQsqaUBKTNV-1">
          <mxGeometry x="1130" y="100" width="160" height="20" as="geometry">
            <mxRectangle x="550" y="140" width="160" height="26" as="alternateBounds" />
          </mxGeometry>
        </mxCell>
        <mxCell id="hqBXddnmdZQXCiaFwKHF-100" style="edgeStyle=orthogonalEdgeStyle;rounded=0;orthogonalLoop=1;jettySize=auto;html=1;exitX=0.5;exitY=0;exitDx=0;exitDy=0;entryX=0.5;entryY=1;entryDx=0;entryDy=0;endArrow=block;endFill=0;endSize=10;" edge="1" parent="WIyWlLk6GJQsqaUBKTNV-1" source="hqBXddnmdZQXCiaFwKHF-91" target="hqBXddnmdZQXCiaFwKHF-82">
          <mxGeometry relative="1" as="geometry" />
        </mxCell>
        <mxCell id="hqBXddnmdZQXCiaFwKHF-119" style="edgeStyle=orthogonalEdgeStyle;rounded=0;orthogonalLoop=1;jettySize=auto;html=1;exitX=0.5;exitY=1;exitDx=0;exitDy=0;entryX=0.5;entryY=0;entryDx=0;entryDy=0;endArrow=block;endFill=0;" edge="1" parent="WIyWlLk6GJQsqaUBKTNV-1" source="hqBXddnmdZQXCiaFwKHF-91" target="hqBXddnmdZQXCiaFwKHF-107">
          <mxGeometry relative="1" as="geometry" />
        </mxCell>
        <mxCell id="hqBXddnmdZQXCiaFwKHF-91" value="&lt;&lt;intefrace&gt;&gt; EventRepository" style="swimlane;fontStyle=0;align=center;verticalAlign=top;childLayout=stackLayout;horizontal=1;startSize=30;horizontalStack=0;resizeParent=1;resizeLast=0;collapsible=1;marginBottom=0;rounded=0;shadow=0;strokeWidth=1;" vertex="1" parent="WIyWlLk6GJQsqaUBKTNV-1">
          <mxGeometry x="840" y="250" width="190" height="30" as="geometry">
            <mxRectangle x="550" y="140" width="160" height="26" as="alternateBounds" />
          </mxGeometry>
        </mxCell>
        <mxCell id="hqBXddnmdZQXCiaFwKHF-94" style="edgeStyle=orthogonalEdgeStyle;rounded=0;orthogonalLoop=1;jettySize=auto;html=1;exitX=0.5;exitY=1;exitDx=0;exitDy=0;" edge="1" parent="WIyWlLk6GJQsqaUBKTNV-1" source="hqBXddnmdZQXCiaFwKHF-91" target="hqBXddnmdZQXCiaFwKHF-91">
          <mxGeometry relative="1" as="geometry" />
        </mxCell>
        <mxCell id="hqBXddnmdZQXCiaFwKHF-101" style="edgeStyle=orthogonalEdgeStyle;rounded=0;orthogonalLoop=1;jettySize=auto;html=1;exitX=0.5;exitY=0;exitDx=0;exitDy=0;entryX=0.5;entryY=1;entryDx=0;entryDy=0;endSize=10;endArrow=block;endFill=0;" edge="1" parent="WIyWlLk6GJQsqaUBKTNV-1" source="hqBXddnmdZQXCiaFwKHF-95" target="hqBXddnmdZQXCiaFwKHF-82">
          <mxGeometry relative="1" as="geometry">
            <Array as="points">
              <mxPoint x="1210" y="250" />
            </Array>
          </mxGeometry>
        </mxCell>
        <mxCell id="hqBXddnmdZQXCiaFwKHF-95" value="&lt;&lt;intefrace&gt;&gt; LocationRepository" style="swimlane;fontStyle=0;align=center;verticalAlign=top;childLayout=stackLayout;horizontal=1;startSize=30;horizontalStack=0;resizeParent=1;resizeLast=0;collapsible=1;marginBottom=0;rounded=0;shadow=0;strokeWidth=1;" vertex="1" parent="WIyWlLk6GJQsqaUBKTNV-1">
          <mxGeometry x="1060" y="250" width="190" height="30" as="geometry">
            <mxRectangle x="550" y="140" width="160" height="26" as="alternateBounds" />
          </mxGeometry>
        </mxCell>
        <mxCell id="hqBXddnmdZQXCiaFwKHF-102" style="edgeStyle=orthogonalEdgeStyle;rounded=0;orthogonalLoop=1;jettySize=auto;html=1;exitX=0.5;exitY=0;exitDx=0;exitDy=0;endArrow=block;endFill=0;endSize=10;" edge="1" parent="WIyWlLk6GJQsqaUBKTNV-1" source="hqBXddnmdZQXCiaFwKHF-98" target="hqBXddnmdZQXCiaFwKHF-82">
          <mxGeometry relative="1" as="geometry" />
        </mxCell>
        <mxCell id="hqBXddnmdZQXCiaFwKHF-120" style="edgeStyle=orthogonalEdgeStyle;rounded=0;orthogonalLoop=1;jettySize=auto;html=1;exitX=0.5;exitY=1;exitDx=0;exitDy=0;entryX=0.5;entryY=0;entryDx=0;entryDy=0;endArrow=block;endFill=0;" edge="1" parent="WIyWlLk6GJQsqaUBKTNV-1" source="hqBXddnmdZQXCiaFwKHF-98" target="hqBXddnmdZQXCiaFwKHF-114">
          <mxGeometry relative="1" as="geometry">
            <Array as="points">
              <mxPoint x="1375" y="420" />
              <mxPoint x="1580" y="420" />
            </Array>
          </mxGeometry>
        </mxCell>
        <mxCell id="hqBXddnmdZQXCiaFwKHF-142" style="edgeStyle=orthogonalEdgeStyle;rounded=0;orthogonalLoop=1;jettySize=auto;html=1;exitX=0.5;exitY=1;exitDx=0;exitDy=0;entryX=0.5;entryY=0;entryDx=0;entryDy=0;endArrow=diamondThin;endFill=0;" edge="1" parent="WIyWlLk6GJQsqaUBKTNV-1" source="hqBXddnmdZQXCiaFwKHF-98" target="hqBXddnmdZQXCiaFwKHF-125">
          <mxGeometry relative="1" as="geometry" />
        </mxCell>
        <mxCell id="hqBXddnmdZQXCiaFwKHF-98" value="&lt;&lt;intefrace&gt;&gt; PersonRepository" style="swimlane;fontStyle=0;align=center;verticalAlign=top;childLayout=stackLayout;horizontal=1;startSize=30;horizontalStack=0;resizeParent=1;resizeLast=0;collapsible=1;marginBottom=0;rounded=0;shadow=0;strokeWidth=1;" vertex="1" parent="WIyWlLk6GJQsqaUBKTNV-1">
          <mxGeometry x="1280" y="250" width="190" height="30" as="geometry">
            <mxRectangle x="550" y="140" width="160" height="26" as="alternateBounds" />
          </mxGeometry>
        </mxCell>
        <mxCell id="hqBXddnmdZQXCiaFwKHF-104" style="edgeStyle=orthogonalEdgeStyle;rounded=0;orthogonalLoop=1;jettySize=auto;html=1;exitX=0.5;exitY=0;exitDx=0;exitDy=0;endArrow=block;endFill=0;endSize=10;" edge="1" parent="WIyWlLk6GJQsqaUBKTNV-1" source="hqBXddnmdZQXCiaFwKHF-103">
          <mxGeometry relative="1" as="geometry">
            <mxPoint x="1210" y="120" as="targetPoint" />
          </mxGeometry>
        </mxCell>
        <mxCell id="hqBXddnmdZQXCiaFwKHF-143" style="edgeStyle=orthogonalEdgeStyle;rounded=0;orthogonalLoop=1;jettySize=auto;html=1;exitX=0.5;exitY=1;exitDx=0;exitDy=0;entryX=0.5;entryY=0;entryDx=0;entryDy=0;endArrow=blockThin;endFill=0;" edge="1" parent="WIyWlLk6GJQsqaUBKTNV-1" source="hqBXddnmdZQXCiaFwKHF-103" target="hqBXddnmdZQXCiaFwKHF-125">
          <mxGeometry relative="1" as="geometry">
            <Array as="points">
              <mxPoint x="1650" y="280" />
              <mxPoint x="1650" y="420" />
              <mxPoint x="2160" y="420" />
            </Array>
          </mxGeometry>
        </mxCell>
        <mxCell id="hqBXddnmdZQXCiaFwKHF-103" value="&lt;&lt;intefrace&gt;&gt; TicketRepository" style="swimlane;fontStyle=0;align=center;verticalAlign=top;childLayout=stackLayout;horizontal=1;startSize=30;horizontalStack=0;resizeParent=1;resizeLast=0;collapsible=1;marginBottom=0;rounded=0;shadow=0;strokeWidth=1;" vertex="1" parent="WIyWlLk6GJQsqaUBKTNV-1">
          <mxGeometry x="1490" y="250" width="190" height="30" as="geometry">
            <mxRectangle x="550" y="140" width="160" height="26" as="alternateBounds" />
          </mxGeometry>
        </mxCell>
        <mxCell id="hqBXddnmdZQXCiaFwKHF-106" style="edgeStyle=orthogonalEdgeStyle;rounded=0;orthogonalLoop=1;jettySize=auto;html=1;exitX=0.5;exitY=0;exitDx=0;exitDy=0;endArrow=block;endFill=0;endSize=10;" edge="1" parent="WIyWlLk6GJQsqaUBKTNV-1" source="hqBXddnmdZQXCiaFwKHF-105">
          <mxGeometry relative="1" as="geometry">
            <mxPoint x="1210" y="120" as="targetPoint" />
          </mxGeometry>
        </mxCell>
        <mxCell id="hqBXddnmdZQXCiaFwKHF-149" style="edgeStyle=orthogonalEdgeStyle;rounded=0;orthogonalLoop=1;jettySize=auto;html=1;exitX=1;exitY=0.5;exitDx=0;exitDy=0;entryX=0.5;entryY=0;entryDx=0;entryDy=0;endArrow=block;endFill=0;" edge="1" parent="WIyWlLk6GJQsqaUBKTNV-1" source="hqBXddnmdZQXCiaFwKHF-105" target="hqBXddnmdZQXCiaFwKHF-144">
          <mxGeometry relative="1" as="geometry" />
        </mxCell>
        <mxCell id="hqBXddnmdZQXCiaFwKHF-105" value="&lt;&lt;intefrace&gt;&gt; VenueRepository" style="swimlane;fontStyle=0;align=center;verticalAlign=top;childLayout=stackLayout;horizontal=1;startSize=30;horizontalStack=0;resizeParent=1;resizeLast=0;collapsible=1;marginBottom=0;rounded=0;shadow=0;strokeWidth=1;" vertex="1" parent="WIyWlLk6GJQsqaUBKTNV-1">
          <mxGeometry x="1700" y="250" width="190" height="30" as="geometry">
            <mxRectangle x="550" y="140" width="160" height="26" as="alternateBounds" />
          </mxGeometry>
        </mxCell>
        <mxCell id="hqBXddnmdZQXCiaFwKHF-173" style="edgeStyle=orthogonalEdgeStyle;rounded=0;orthogonalLoop=1;jettySize=auto;html=1;entryX=0.5;entryY=0;entryDx=0;entryDy=0;endArrow=block;endFill=0;" edge="1" parent="WIyWlLk6GJQsqaUBKTNV-1" source="hqBXddnmdZQXCiaFwKHF-107" target="hqBXddnmdZQXCiaFwKHF-150">
          <mxGeometry relative="1" as="geometry" />
        </mxCell>
        <mxCell id="hqBXddnmdZQXCiaFwKHF-107" value="EventService" style="swimlane;fontStyle=0;align=center;verticalAlign=top;childLayout=stackLayout;horizontal=1;startSize=26;horizontalStack=0;resizeParent=1;resizeLast=0;collapsible=1;marginBottom=0;rounded=0;shadow=0;strokeWidth=1;" vertex="1" parent="WIyWlLk6GJQsqaUBKTNV-1">
          <mxGeometry x="860" y="560" width="450" height="116" as="geometry">
            <mxRectangle x="130" y="380" width="160" height="26" as="alternateBounds" />
          </mxGeometry>
        </mxCell>
        <mxCell id="hqBXddnmdZQXCiaFwKHF-113" value="eventRepository: EventRepository" style="text;html=1;align=center;verticalAlign=middle;resizable=0;points=[];autosize=1;strokeColor=none;fillColor=none;" vertex="1" parent="hqBXddnmdZQXCiaFwKHF-107">
          <mxGeometry y="26" width="450" height="30" as="geometry" />
        </mxCell>
        <mxCell id="hqBXddnmdZQXCiaFwKHF-112" value="getEvents(): CompletableFuture&amp;lt;Map&amp;lt;String, List&amp;lt;Event&amp;gt;&amp;gt;" style="text;html=1;align=center;verticalAlign=middle;resizable=0;points=[];autosize=1;strokeColor=none;fillColor=none;" vertex="1" parent="hqBXddnmdZQXCiaFwKHF-107">
          <mxGeometry y="56" width="450" height="30" as="geometry" />
        </mxCell>
        <mxCell id="hqBXddnmdZQXCiaFwKHF-117" value="addEvent(event: Event): CompletableFuture&amp;lt;Map&amp;lt;Sting, String&amp;gt;&amp;gt;" style="text;html=1;align=center;verticalAlign=middle;resizable=0;points=[];autosize=1;strokeColor=none;fillColor=none;" vertex="1" parent="hqBXddnmdZQXCiaFwKHF-107">
          <mxGeometry y="86" width="450" height="30" as="geometry" />
        </mxCell>
        <mxCell id="hqBXddnmdZQXCiaFwKHF-174" style="edgeStyle=orthogonalEdgeStyle;rounded=0;orthogonalLoop=1;jettySize=auto;html=1;entryX=0.5;entryY=0;entryDx=0;entryDy=0;endArrow=block;endFill=0;" edge="1" parent="WIyWlLk6GJQsqaUBKTNV-1" source="hqBXddnmdZQXCiaFwKHF-114" target="hqBXddnmdZQXCiaFwKHF-165">
          <mxGeometry relative="1" as="geometry" />
        </mxCell>
        <mxCell id="hqBXddnmdZQXCiaFwKHF-114" value="PersonService" style="swimlane;fontStyle=0;align=center;verticalAlign=top;childLayout=stackLayout;horizontal=1;startSize=26;horizontalStack=0;resizeParent=1;resizeLast=0;collapsible=1;marginBottom=0;rounded=0;shadow=0;strokeWidth=1;" vertex="1" parent="WIyWlLk6GJQsqaUBKTNV-1">
          <mxGeometry x="1360" y="560" width="440" height="117" as="geometry">
            <mxRectangle x="130" y="380" width="160" height="26" as="alternateBounds" />
          </mxGeometry>
        </mxCell>
        <mxCell id="hqBXddnmdZQXCiaFwKHF-118" value="personsRepository: PersonRepository" style="text;html=1;align=center;verticalAlign=middle;resizable=0;points=[];autosize=1;strokeColor=none;fillColor=none;" vertex="1" parent="hqBXddnmdZQXCiaFwKHF-114">
          <mxGeometry y="26" width="440" height="30" as="geometry" />
        </mxCell>
        <mxCell id="hqBXddnmdZQXCiaFwKHF-115" value="getPersons(): CompletableFuture&amp;lt;Map&amp;lt;String, List&amp;lt;Person&amp;gt;&amp;gt;" style="text;html=1;align=center;verticalAlign=middle;resizable=0;points=[];autosize=1;strokeColor=none;fillColor=none;" vertex="1" parent="hqBXddnmdZQXCiaFwKHF-114">
          <mxGeometry y="56" width="440" height="30" as="geometry" />
        </mxCell>
        <mxCell id="hqBXddnmdZQXCiaFwKHF-185" style="edgeStyle=orthogonalEdgeStyle;rounded=0;orthogonalLoop=1;jettySize=auto;html=1;entryX=0.5;entryY=0;entryDx=0;entryDy=0;endArrow=block;endFill=0;" edge="1" parent="WIyWlLk6GJQsqaUBKTNV-1" source="hqBXddnmdZQXCiaFwKHF-121" target="hqBXddnmdZQXCiaFwKHF-169">
          <mxGeometry relative="1" as="geometry">
            <Array as="points">
              <mxPoint x="2740" y="1100" />
              <mxPoint x="2328" y="1100" />
            </Array>
          </mxGeometry>
        </mxCell>
        <mxCell id="hqBXddnmdZQXCiaFwKHF-121" value="TicketEventService" style="swimlane;fontStyle=0;align=center;verticalAlign=top;childLayout=stackLayout;horizontal=1;startSize=26;horizontalStack=0;resizeParent=1;resizeLast=0;collapsible=1;marginBottom=0;rounded=0;shadow=0;strokeWidth=1;" vertex="1" parent="WIyWlLk6GJQsqaUBKTNV-1">
          <mxGeometry x="2520" y="916" width="440" height="86" as="geometry">
            <mxRectangle x="130" y="380" width="160" height="26" as="alternateBounds" />
          </mxGeometry>
        </mxCell>
        <mxCell id="hqBXddnmdZQXCiaFwKHF-122" value="subscribe: SseEmitter()" style="text;html=1;align=center;verticalAlign=middle;resizable=0;points=[];autosize=1;strokeColor=none;fillColor=none;" vertex="1" parent="hqBXddnmdZQXCiaFwKHF-121">
          <mxGeometry y="26" width="440" height="30" as="geometry" />
        </mxCell>
        <mxCell id="hqBXddnmdZQXCiaFwKHF-123" value="publishChange(action: String, id: Integer)" style="text;html=1;align=center;verticalAlign=middle;resizable=0;points=[];autosize=1;strokeColor=none;fillColor=none;" vertex="1" parent="hqBXddnmdZQXCiaFwKHF-121">
          <mxGeometry y="56" width="440" height="30" as="geometry" />
        </mxCell>
        <mxCell id="hqBXddnmdZQXCiaFwKHF-184" style="edgeStyle=orthogonalEdgeStyle;rounded=0;orthogonalLoop=1;jettySize=auto;html=1;exitX=0.5;exitY=1;exitDx=0;exitDy=0;entryX=0.5;entryY=0;entryDx=0;entryDy=0;endArrow=block;endFill=0;" edge="1" parent="WIyWlLk6GJQsqaUBKTNV-1" source="hqBXddnmdZQXCiaFwKHF-125" target="hqBXddnmdZQXCiaFwKHF-169">
          <mxGeometry relative="1" as="geometry" />
        </mxCell>
        <mxCell id="hqBXddnmdZQXCiaFwKHF-125" value="TicketService" style="swimlane;fontStyle=0;align=center;verticalAlign=top;childLayout=stackLayout;horizontal=1;startSize=26;horizontalStack=0;resizeParent=1;resizeLast=0;collapsible=1;marginBottom=0;rounded=0;shadow=0;strokeWidth=1;" vertex="1" parent="WIyWlLk6GJQsqaUBKTNV-1">
          <mxGeometry x="1860" y="560" width="600" height="450" as="geometry">
            <mxRectangle x="130" y="380" width="160" height="26" as="alternateBounds" />
          </mxGeometry>
        </mxCell>
        <mxCell id="hqBXddnmdZQXCiaFwKHF-129" value="ticketRepository: TicketRepository" style="text;html=1;align=center;verticalAlign=middle;resizable=0;points=[];autosize=1;strokeColor=none;fillColor=none;" vertex="1" parent="hqBXddnmdZQXCiaFwKHF-125">
          <mxGeometry y="26" width="600" height="30" as="geometry" />
        </mxCell>
        <mxCell id="hqBXddnmdZQXCiaFwKHF-130" value="personRepository: personRepository" style="text;html=1;align=center;verticalAlign=middle;resizable=0;points=[];autosize=1;strokeColor=none;fillColor=none;" vertex="1" parent="hqBXddnmdZQXCiaFwKHF-125">
          <mxGeometry y="56" width="600" height="30" as="geometry" />
        </mxCell>
        <mxCell id="hqBXddnmdZQXCiaFwKHF-131" value="getTickets(): CompletableFuture&amp;lt;Map&amp;lt;String, List&amp;lt;Ticket&amp;gt;&amp;gt;" style="text;html=1;align=center;verticalAlign=middle;resizable=0;points=[];autosize=1;strokeColor=none;fillColor=none;" vertex="1" parent="hqBXddnmdZQXCiaFwKHF-125">
          <mxGeometry y="86" width="600" height="30" as="geometry" />
        </mxCell>
        <mxCell id="hqBXddnmdZQXCiaFwKHF-132" value="addTicket(ticket: Ticket): CompletableFuture&amp;lt;Map&amp;lt;Sting, Boolean&amp;gt;&amp;gt;" style="text;html=1;align=center;verticalAlign=middle;resizable=0;points=[];autosize=1;strokeColor=none;fillColor=none;" vertex="1" parent="hqBXddnmdZQXCiaFwKHF-125">
          <mxGeometry y="116" width="600" height="30" as="geometry" />
        </mxCell>
        <mxCell id="hqBXddnmdZQXCiaFwKHF-133" value="getTicket(id: Integer): CompletableFuture&amp;lt;Ticket&amp;gt;" style="text;html=1;align=center;verticalAlign=middle;resizable=0;points=[];autosize=1;strokeColor=none;fillColor=none;" vertex="1" parent="hqBXddnmdZQXCiaFwKHF-125">
          <mxGeometry y="146" width="600" height="30" as="geometry" />
        </mxCell>
        <mxCell id="hqBXddnmdZQXCiaFwKHF-134" value="updateTicket(id: Integer, ticket: Ticket): CompletableFuture&amp;lt;Boolean&amp;gt;" style="text;html=1;align=center;verticalAlign=middle;resizable=0;points=[];autosize=1;strokeColor=none;fillColor=none;" vertex="1" parent="hqBXddnmdZQXCiaFwKHF-125">
          <mxGeometry y="176" width="600" height="30" as="geometry" />
        </mxCell>
        <mxCell id="hqBXddnmdZQXCiaFwKHF-135" value="removeTicket(id: Long): CompletableFuture&amp;lt;Boolean&amp;gt;" style="text;html=1;align=center;verticalAlign=middle;resizable=0;points=[];autosize=1;strokeColor=none;fillColor=none;" vertex="1" parent="hqBXddnmdZQXCiaFwKHF-125">
          <mxGeometry y="206" width="600" height="30" as="geometry" />
        </mxCell>
        <mxCell id="hqBXddnmdZQXCiaFwKHF-136" value="deleteAllByComment(comment: String): CompletableFuture&amp;lt;Boolean&amp;gt;" style="text;html=1;align=center;verticalAlign=middle;resizable=0;points=[];autosize=1;strokeColor=none;fillColor=none;" vertex="1" parent="hqBXddnmdZQXCiaFwKHF-125">
          <mxGeometry y="236" width="600" height="30" as="geometry" />
        </mxCell>
        <mxCell id="hqBXddnmdZQXCiaFwKHF-137" value="getWithMinEvent(): CompletableFuture&amp;lt;Ticket&amp;gt;" style="text;html=1;align=center;verticalAlign=middle;resizable=0;points=[];autosize=1;strokeColor=none;fillColor=none;" vertex="1" parent="hqBXddnmdZQXCiaFwKHF-125">
          <mxGeometry y="266" width="600" height="30" as="geometry" />
        </mxCell>
        <mxCell id="hqBXddnmdZQXCiaFwKHF-138" value="countByCommentLess(comment: String): CompletableFuture&amp;lt;Map&amp;lt;String, Long&amp;gt;&amp;gt;" style="text;html=1;align=center;verticalAlign=middle;resizable=0;points=[];autosize=1;strokeColor=none;fillColor=none;" vertex="1" parent="hqBXddnmdZQXCiaFwKHF-125">
          <mxGeometry y="296" width="600" height="30" as="geometry" />
        </mxCell>
        <mxCell id="hqBXddnmdZQXCiaFwKHF-139" value="sellTicket(ticketId: Integer, passportId: Integer, amount; Float): CompletableFuture&amp;lt;Boolean&amp;gt;" style="text;html=1;align=center;verticalAlign=middle;resizable=0;points=[];autosize=1;strokeColor=none;fillColor=none;" vertex="1" parent="hqBXddnmdZQXCiaFwKHF-125">
          <mxGeometry y="326" width="600" height="30" as="geometry" />
        </mxCell>
        <mxCell id="hqBXddnmdZQXCiaFwKHF-140" value="cloneVip(ticketId: Integer): CompletableFuture&amp;lt;Ticket&amp;gt;" style="text;html=1;align=center;verticalAlign=middle;resizable=0;points=[];autosize=1;strokeColor=none;fillColor=none;" vertex="1" parent="hqBXddnmdZQXCiaFwKHF-125">
          <mxGeometry y="356" width="600" height="30" as="geometry" />
        </mxCell>
        <mxCell id="hqBXddnmdZQXCiaFwKHF-144" value="VenueService" style="swimlane;fontStyle=0;align=center;verticalAlign=top;childLayout=stackLayout;horizontal=1;startSize=26;horizontalStack=0;resizeParent=1;resizeLast=0;collapsible=1;marginBottom=0;rounded=0;shadow=0;strokeWidth=1;" vertex="1" parent="WIyWlLk6GJQsqaUBKTNV-1">
          <mxGeometry x="3020" y="559" width="440" height="117" as="geometry">
            <mxRectangle x="130" y="380" width="160" height="26" as="alternateBounds" />
          </mxGeometry>
        </mxCell>
        <mxCell id="hqBXddnmdZQXCiaFwKHF-145" value="venueRepository: venueRepository" style="text;html=1;align=center;verticalAlign=middle;resizable=0;points=[];autosize=1;strokeColor=none;fillColor=none;" vertex="1" parent="hqBXddnmdZQXCiaFwKHF-144">
          <mxGeometry y="26" width="440" height="30" as="geometry" />
        </mxCell>
        <mxCell id="hqBXddnmdZQXCiaFwKHF-146" value="getVenues(): CompletableFuture&amp;lt;Map&amp;lt;String, List&amp;lt;Venue&amp;gt;&amp;gt;" style="text;html=1;align=center;verticalAlign=middle;resizable=0;points=[];autosize=1;strokeColor=none;fillColor=none;" vertex="1" parent="hqBXddnmdZQXCiaFwKHF-144">
          <mxGeometry y="56" width="440" height="30" as="geometry" />
        </mxCell>
        <mxCell id="hqBXddnmdZQXCiaFwKHF-147" value="addVenue(venue: Venue): CompletableFuture&amp;lt;Map&amp;lt;Sting, String&amp;gt;&amp;gt;" style="text;html=1;align=center;verticalAlign=middle;resizable=0;points=[];autosize=1;strokeColor=none;fillColor=none;" vertex="1" parent="hqBXddnmdZQXCiaFwKHF-144">
          <mxGeometry y="86" width="440" height="30" as="geometry" />
        </mxCell>
        <mxCell id="hqBXddnmdZQXCiaFwKHF-150" value="EventController" style="swimlane;fontStyle=2;align=center;verticalAlign=top;childLayout=stackLayout;horizontal=1;startSize=26;horizontalStack=0;resizeParent=1;resizeLast=0;collapsible=1;marginBottom=0;rounded=0;shadow=0;strokeWidth=1;" vertex="1" parent="WIyWlLk6GJQsqaUBKTNV-1">
          <mxGeometry x="905" y="1210" width="360" height="116" as="geometry">
            <mxRectangle x="230" y="140" width="160" height="26" as="alternateBounds" />
          </mxGeometry>
        </mxCell>
        <mxCell id="hqBXddnmdZQXCiaFwKHF-151" value="service: EventService" style="text;html=1;align=center;verticalAlign=middle;resizable=0;points=[];autosize=1;strokeColor=none;fillColor=none;" vertex="1" parent="hqBXddnmdZQXCiaFwKHF-150">
          <mxGeometry y="26" width="360" height="30" as="geometry" />
        </mxCell>
        <mxCell id="hqBXddnmdZQXCiaFwKHF-163" value="getEvents(): CompletableFuture&amp;lt;ResponseEntity&amp;gt;" style="text;html=1;align=center;verticalAlign=middle;resizable=0;points=[];autosize=1;strokeColor=none;fillColor=none;" vertex="1" parent="hqBXddnmdZQXCiaFwKHF-150">
          <mxGeometry y="56" width="360" height="30" as="geometry" />
        </mxCell>
        <mxCell id="hqBXddnmdZQXCiaFwKHF-164" value="addEvent(event: Event): CompletableFuture&amp;lt;Map&amp;lt;String, String&amp;gt;" style="text;html=1;align=center;verticalAlign=middle;resizable=0;points=[];autosize=1;strokeColor=none;fillColor=none;" vertex="1" parent="hqBXddnmdZQXCiaFwKHF-150">
          <mxGeometry y="86" width="360" height="30" as="geometry" />
        </mxCell>
        <mxCell id="hqBXddnmdZQXCiaFwKHF-165" value="PersonController" style="swimlane;fontStyle=2;align=center;verticalAlign=top;childLayout=stackLayout;horizontal=1;startSize=26;horizontalStack=0;resizeParent=1;resizeLast=0;collapsible=1;marginBottom=0;rounded=0;shadow=0;strokeWidth=1;" vertex="1" parent="WIyWlLk6GJQsqaUBKTNV-1">
          <mxGeometry x="1383.5" y="1210" width="393" height="116" as="geometry">
            <mxRectangle x="230" y="140" width="160" height="26" as="alternateBounds" />
          </mxGeometry>
        </mxCell>
        <mxCell id="hqBXddnmdZQXCiaFwKHF-166" value="service: personService" style="text;html=1;align=center;verticalAlign=middle;resizable=0;points=[];autosize=1;strokeColor=none;fillColor=none;" vertex="1" parent="hqBXddnmdZQXCiaFwKHF-165">
          <mxGeometry y="26" width="393" height="30" as="geometry" />
        </mxCell>
        <mxCell id="hqBXddnmdZQXCiaFwKHF-167" value="getPersons(): CompletableFuture&amp;lt;ResponseEntity&amp;gt;" style="text;html=1;align=center;verticalAlign=middle;resizable=0;points=[];autosize=1;strokeColor=none;fillColor=none;" vertex="1" parent="hqBXddnmdZQXCiaFwKHF-165">
          <mxGeometry y="56" width="393" height="30" as="geometry" />
        </mxCell>
        <mxCell id="hqBXddnmdZQXCiaFwKHF-168" value="addPerson(person: Person): CompletableFuture&amp;lt;Map&amp;lt;String, Boolean&amp;gt;" style="text;html=1;align=center;verticalAlign=middle;resizable=0;points=[];autosize=1;strokeColor=none;fillColor=none;" vertex="1" parent="hqBXddnmdZQXCiaFwKHF-165">
          <mxGeometry y="86" width="393" height="30" as="geometry" />
        </mxCell>
        <mxCell id="hqBXddnmdZQXCiaFwKHF-169" value="TicketController" style="swimlane;fontStyle=2;align=center;verticalAlign=top;childLayout=stackLayout;horizontal=1;startSize=26;horizontalStack=0;resizeParent=1;resizeLast=0;collapsible=1;marginBottom=0;rounded=0;shadow=0;strokeWidth=1;" vertex="1" parent="WIyWlLk6GJQsqaUBKTNV-1">
          <mxGeometry x="2110" y="1190" width="435" height="430" as="geometry">
            <mxRectangle x="230" y="140" width="160" height="26" as="alternateBounds" />
          </mxGeometry>
        </mxCell>
        <mxCell id="hqBXddnmdZQXCiaFwKHF-170" value="eventService: TicketEventService&lt;div&gt;service: TicketService&lt;/div&gt;" style="text;html=1;align=center;verticalAlign=middle;resizable=0;points=[];autosize=1;strokeColor=none;fillColor=none;" vertex="1" parent="hqBXddnmdZQXCiaFwKHF-169">
          <mxGeometry y="26" width="435" height="40" as="geometry" />
        </mxCell>
        <mxCell id="hqBXddnmdZQXCiaFwKHF-171" value="getTickets(): CompletableFuture&amp;lt;ResponseEntity&amp;gt;" style="text;html=1;align=center;verticalAlign=middle;resizable=0;points=[];autosize=1;strokeColor=none;fillColor=none;" vertex="1" parent="hqBXddnmdZQXCiaFwKHF-169">
          <mxGeometry y="66" width="435" height="30" as="geometry" />
        </mxCell>
        <mxCell id="hqBXddnmdZQXCiaFwKHF-172" value="addTicket(ticket: Ticket): CompletableFuture&amp;lt;Map&amp;lt;String, String&amp;gt;" style="text;html=1;align=center;verticalAlign=middle;resizable=0;points=[];autosize=1;strokeColor=none;fillColor=none;" vertex="1" parent="hqBXddnmdZQXCiaFwKHF-169">
          <mxGeometry y="96" width="435" height="30" as="geometry" />
        </mxCell>
        <mxCell id="hqBXddnmdZQXCiaFwKHF-175" value="steam(): SseEmitter" style="text;html=1;align=center;verticalAlign=middle;resizable=0;points=[];autosize=1;strokeColor=none;fillColor=none;" vertex="1" parent="hqBXddnmdZQXCiaFwKHF-169">
          <mxGeometry y="126" width="435" height="30" as="geometry" />
        </mxCell>
        <mxCell id="hqBXddnmdZQXCiaFwKHF-176" value="getTicket(id: Integer): CompletableFuture&amp;lt;ResponseEntity&amp;gt;" style="text;html=1;align=center;verticalAlign=middle;resizable=0;points=[];autosize=1;strokeColor=none;fillColor=none;" vertex="1" parent="hqBXddnmdZQXCiaFwKHF-169">
          <mxGeometry y="156" width="435" height="30" as="geometry" />
        </mxCell>
        <mxCell id="hqBXddnmdZQXCiaFwKHF-177" value="updateTicket(id: Integer, ticket: Ticket): CompletableFuture&amp;lt;ResponseEntity&amp;gt;" style="text;html=1;align=center;verticalAlign=middle;resizable=0;points=[];autosize=1;strokeColor=none;fillColor=none;" vertex="1" parent="hqBXddnmdZQXCiaFwKHF-169">
          <mxGeometry y="186" width="435" height="30" as="geometry" />
        </mxCell>
        <mxCell id="hqBXddnmdZQXCiaFwKHF-178" value="deleteTicket(id: Long): CompletableFuture&amp;lt;ResponseEntity&amp;gt;" style="text;html=1;align=center;verticalAlign=middle;resizable=0;points=[];autosize=1;strokeColor=none;fillColor=none;" vertex="1" parent="hqBXddnmdZQXCiaFwKHF-169">
          <mxGeometry y="216" width="435" height="30" as="geometry" />
        </mxCell>
        <mxCell id="hqBXddnmdZQXCiaFwKHF-179" value="deleteByComment(comment: String): CompletableFuture&amp;lt;ResponseEntity&amp;gt;" style="text;html=1;align=center;verticalAlign=middle;resizable=0;points=[];autosize=1;strokeColor=none;fillColor=none;" vertex="1" parent="hqBXddnmdZQXCiaFwKHF-169">
          <mxGeometry y="246" width="435" height="30" as="geometry" />
        </mxCell>
        <mxCell id="hqBXddnmdZQXCiaFwKHF-180" value="minEventTicket(): CompletableFuture&amp;lt;ResponseEntity&amp;gt;" style="text;html=1;align=center;verticalAlign=middle;resizable=0;points=[];autosize=1;strokeColor=none;fillColor=none;" vertex="1" parent="hqBXddnmdZQXCiaFwKHF-169">
          <mxGeometry y="276" width="435" height="30" as="geometry" />
        </mxCell>
        <mxCell id="hqBXddnmdZQXCiaFwKHF-181" value="countCommentLess(comment: String): CompletableFuture&amp;lt;ResponseEntity&amp;gt;" style="text;html=1;align=center;verticalAlign=middle;resizable=0;points=[];autosize=1;strokeColor=none;fillColor=none;" vertex="1" parent="hqBXddnmdZQXCiaFwKHF-169">
          <mxGeometry y="306" width="435" height="30" as="geometry" />
        </mxCell>
        <mxCell id="hqBXddnmdZQXCiaFwKHF-182" value="sellTicket(dto: SellRequestDto): CompletableFuture&amp;lt;ResponseEntity&amp;gt;" style="text;html=1;align=center;verticalAlign=middle;resizable=0;points=[];autosize=1;strokeColor=none;fillColor=none;" vertex="1" parent="hqBXddnmdZQXCiaFwKHF-169">
          <mxGeometry y="336" width="435" height="30" as="geometry" />
        </mxCell>
        <mxCell id="hqBXddnmdZQXCiaFwKHF-183" value="cloneVip(res: CloneRes): CompletableFuture&amp;lt;ResponseEntity&amp;gt;" style="text;html=1;align=center;verticalAlign=middle;resizable=0;points=[];autosize=1;strokeColor=none;fillColor=none;" vertex="1" parent="hqBXddnmdZQXCiaFwKHF-169">
          <mxGeometry y="366" width="435" height="30" as="geometry" />
        </mxCell>
        <mxCell id="hqBXddnmdZQXCiaFwKHF-116" value="addPersons(person: Person): CompletableFuture&amp;lt;Map&amp;lt;Sting, String&amp;gt;&amp;gt;" style="text;html=1;align=center;verticalAlign=middle;resizable=0;points=[];autosize=1;strokeColor=none;fillColor=none;" vertex="1" parent="WIyWlLk6GJQsqaUBKTNV-1">
          <mxGeometry x="1360" y="646" width="440" height="30" as="geometry" />
        </mxCell>
      </root>
    </mxGraphModel>
  </diagram>
</mxfile>
